<?xml version="1.0" encoding="UTF-8"?>
<svg id="Capa_1" data-name="Capa 1" xmlns="http://www.w3.org/2000/svg" viewBox="0 0 512.02 499.38">
  <defs>
    <style>
      .cls-1 {
        fill: #fff;
      }
    </style>
  </defs>
  <path class="cls-1" d="m256,0C114.62,0,0,114.6,0,256c0,113.11,73.34,209.07,175.06,242.92,12.8,2.37,17.49-5.55,17.49-12.31,0-6.1-.23-26.26-.34-47.66-71.21,15.49-86.25-30.21-86.25-30.21-11.65-29.59-28.42-37.46-28.42-37.46-23.23-15.89,1.75-15.55,1.75-15.55,25.71,1.81,39.23,26.39,39.23,26.39,22.83,39.13,59.88,27.82,74.5,21.27,2.3-16.55,8.94-27.84,16.26-34.24-56.85-6.46-116.63-28.42-116.63-126.51,0-27.95,10.01-50.79,26.39-68.71-2.67-6.46-11.43-32.49,2.47-67.75,0,0,21.5-6.87,70.42,26.24,20.42-5.67,42.3-8.51,64.06-8.62,21.76.11,43.67,2.94,64.13,8.62,48.85-33.13,70.34-26.24,70.34-26.24,13.93,35.26,5.16,61.29,2.52,67.75,16.41,17.92,26.35,40.77,26.35,68.71,0,98.33-59.88,119.98-116.89,126.31,9.17,7.94,17.37,23.53,17.37,47.4,0,34.26-.3,61.82-.3,70.25,0,6.81,4.61,14.81,17.58,12.29,101.67-33.9,174.93-129.81,174.93-242.88C512,114.62,397.38,0,256,0Z"/>
</svg>