<?xml version="1.0" encoding="UTF-8"?>
<svg id="Layer_1" data-name="Layer 1" xmlns="http://www.w3.org/2000/svg" viewBox="0 0 64.87 64.87">
  <defs>
    <style>
      .cls-1 {
        fill: #fff;
      }
    </style>
  </defs>
  <path class="cls-1" d="m34.21,30.26v-.06s-.03.04-.04.06h.04Z"/>
  <path class="cls-1" d="m32.44,0C14.52,0,0,14.52,0,32.44s14.52,32.44,32.44,32.44,32.44-14.52,32.44-32.44S50.35,0,32.44,0Zm-8.08,46.59h-6.35v-19.09h6.35v19.09Zm-3.17-21.7h-.04c-2.13,0-3.51-1.47-3.51-3.3s1.42-3.3,3.59-3.3,3.51,1.43,3.55,3.3c0,1.83-1.38,3.3-3.59,3.3Zm26.06,21.7h-6.35v-10.22c0-2.57-.92-4.32-3.22-4.32-1.75,0-2.8,1.18-3.26,2.32-.17.41-.21.97-.21,1.55v10.66h-6.35s.09-17.3,0-19.09h6.35v2.71c.84-1.3,2.35-3.15,5.72-3.15,4.18,0,7.31,2.73,7.31,8.59v10.95Z"/>
</svg>